<svg width="312" height="252" viewBox="0 0 312 252" fill="none" xmlns="http://www.w3.org/2000/svg">
<path d="M0 0H165C172.732 0 179 6.26801 179 14V27C179 34.732 172.732 41 165 41H14C6.26801 41 0 34.732 0 27V0Z" fill="#FED500"/>
<path d="M23.84 15.892V17.152H21.11V18.23C21.11 18.9207 21.2407 19.602 21.502 20.274C21.7633 20.9367 22.132 21.534 22.608 22.066C23.0933 22.5887 23.658 22.9853 24.302 23.256L23.462 24.446C22.7527 24.1287 22.132 23.662 21.6 23.046C21.068 22.43 20.6573 21.716 20.368 20.904C20.0787 21.7813 19.6633 22.5607 19.122 23.242C18.59 23.914 17.9693 24.418 17.26 24.754L16.406 23.578C17.0407 23.2793 17.596 22.8453 18.072 22.276C18.5573 21.7067 18.9307 21.0673 19.192 20.358C19.4533 19.6487 19.584 18.9393 19.584 18.23V17.152H16.854V15.892H23.84ZM25.212 14.674H26.724V27.12H25.212V14.674ZM38.6103 15.276V16.242C38.6103 16.9233 38.5917 17.5253 38.5543 18.048C38.5263 18.5613 38.4423 19.1447 38.3023 19.798H39.9823V21.016H28.7123V19.798H36.8043C36.935 19.182 37.019 18.622 37.0563 18.118C37.103 17.614 37.1263 17.0727 37.1263 16.494H30.1263V15.276H38.6103ZM30.0703 22.472H38.5963V26.98H30.0703V22.472ZM37.1263 25.79V23.662H31.5403V25.79H37.1263ZM54.5212 14.66V27.148H53.0232V20.316H50.6152V19.098H53.0232V14.66H54.5212ZM44.0212 23.564C44.6559 23.256 45.2112 22.8127 45.6872 22.234C46.1632 21.646 46.5272 20.9833 46.7792 20.246C47.0312 19.5087 47.1572 18.7573 47.1572 17.992V17.124H44.4972V15.892H51.3432V17.124H48.6832V17.992C48.6832 18.7107 48.8092 19.4247 49.0612 20.134C49.3132 20.8433 49.6772 21.478 50.1532 22.038C50.6292 22.598 51.1892 23.0227 51.8332 23.312L50.9512 24.516C50.2512 24.1707 49.6446 23.676 49.1312 23.032C48.6179 22.388 48.2212 21.6413 47.9412 20.792C47.6612 21.688 47.2599 22.486 46.7372 23.186C46.2146 23.8767 45.5986 24.404 44.8892 24.768L44.0212 23.564ZM58.6095 15.388V20.47C59.5149 20.4607 60.3269 20.428 61.0455 20.372C61.7642 20.3067 62.4922 20.204 63.2295 20.064L63.4115 21.296C62.5715 21.4547 61.7362 21.5667 60.9055 21.632C60.0842 21.6973 59.1369 21.73 58.0635 21.73H57.1115V15.388H58.6095ZM58.3015 22.71H66.7435V27.12H65.2455V23.914H58.3015V22.71ZM62.0535 18.258H65.2455V17.194H62.0535V16.032H65.2455V14.674H66.7435V22.136H65.2455V19.406H62.0535V18.258ZM81.6184 14.674V17.39H83.3404V18.636H81.6184V21.506H80.1204V14.674H81.6184ZM72.3224 15.304H73.8064V16.942H76.7184V15.304H78.2024V21.016H72.3224V15.304ZM73.6244 22.052H75.1084V23.312H80.1344V22.052H81.6184V26.966H73.6244V22.052ZM76.7184 19.812V18.104H73.8064V19.812H76.7184ZM80.1344 25.776V24.488H75.1084V25.776H80.1344ZM97.0813 14.674V17.362H98.8033V18.608H97.0813V21.24H95.5693V14.674H97.0813ZM87.3513 20.274C88.826 19.994 89.9553 19.5413 90.7393 18.916C91.5327 18.2907 91.9713 17.558 92.0553 16.718H87.8973V15.514H93.7353C93.7353 17.11 93.2407 18.4073 92.2513 19.406C91.262 20.3953 89.8247 21.086 87.9393 21.478L87.3513 20.274ZM89.0593 21.758H97.1233V22.878H90.5573V23.802H97.0113V24.88H90.5573V25.86H97.4033V26.966H89.0593V21.758ZM109.836 14.66V27.148H108.324V14.66H109.836ZM99.9657 19.966C99.9657 19.0887 100.101 18.3187 100.372 17.656C100.652 16.984 101.034 16.4707 101.52 16.116C102.005 15.752 102.56 15.57 103.186 15.57C103.811 15.57 104.366 15.752 104.852 16.116C105.337 16.4707 105.715 16.984 105.986 17.656C106.266 18.3187 106.406 19.0887 106.406 19.966C106.406 20.8527 106.266 21.632 105.986 22.304C105.715 22.9667 105.337 23.48 104.852 23.844C104.366 24.208 103.811 24.39 103.186 24.39C102.56 24.39 102.005 24.208 101.52 23.844C101.034 23.48 100.652 22.9667 100.372 22.304C100.101 21.632 99.9657 20.8527 99.9657 19.966ZM101.422 19.966C101.422 20.918 101.58 21.6647 101.898 22.206C102.224 22.7473 102.654 23.018 103.186 23.018C103.718 23.018 104.147 22.7473 104.474 22.206C104.8 21.6647 104.964 20.918 104.964 19.966C104.964 19.0233 104.8 18.286 104.474 17.754C104.147 17.2127 103.718 16.942 103.186 16.942C102.654 16.942 102.224 17.2127 101.898 17.754C101.58 18.286 101.422 19.0233 101.422 19.966ZM124.949 15.738V16.97H117.893V20.512H125.075V21.716H116.409V15.738H124.949ZM115.037 24.292H126.307V25.538H115.037V24.292ZM137.535 14.674V21.03H136.037V14.674H137.535ZM127.273 19.812C128.234 19.504 128.981 18.9953 129.513 18.286C130.054 17.5673 130.325 16.7787 130.325 15.92V14.996H131.851V15.92C131.851 16.7413 132.112 17.488 132.635 18.16C133.167 18.832 133.909 19.3127 134.861 19.602L134.133 20.778C133.424 20.554 132.812 20.2227 132.299 19.784C131.795 19.336 131.398 18.804 131.109 18.188C130.82 18.8507 130.414 19.4293 129.891 19.924C129.368 20.4093 128.738 20.7733 128.001 21.016L127.273 19.812ZM129.359 21.618H137.535V24.824H130.857V25.832H137.913V27.022H129.373V23.732H136.051V22.78H129.359V21.618ZM153.992 21.128V22.332H149.246V24.488H147.734V22.332H142.722V21.128H153.992ZM144.094 23.48H145.578V25.664H152.76V26.896H144.094V23.48ZM144.206 15.066H145.69V16.466H151.038V15.066H152.536V20.134H144.206V15.066ZM151.038 18.944V17.614H145.69V18.944H151.038ZM158.136 26.322C157.875 26.322 157.665 26.238 157.506 26.07C157.347 25.9113 157.268 25.706 157.268 25.454C157.268 25.202 157.347 24.9967 157.506 24.838C157.665 24.6793 157.875 24.6 158.136 24.6C158.388 24.6 158.593 24.6793 158.752 24.838C158.911 24.9967 158.99 25.202 158.99 25.454C158.99 25.706 158.911 25.9113 158.752 26.07C158.593 26.238 158.388 26.322 158.136 26.322ZM155.084 17.6C155.345 16.9093 155.779 16.3447 156.386 15.906C157.002 15.4673 157.66 15.248 158.36 15.248C158.995 15.248 159.555 15.3787 160.04 15.64C160.535 15.892 160.917 16.2513 161.188 16.718C161.459 17.1753 161.594 17.698 161.594 18.286C161.594 18.8367 161.449 19.3687 161.16 19.882C160.871 20.3953 160.385 20.904 159.704 21.408C159.349 21.6693 159.116 21.9213 159.004 22.164C158.892 22.4067 158.841 22.78 158.85 23.284L157.38 23.312C157.371 22.5933 157.478 21.996 157.702 21.52C157.926 21.044 158.299 20.6147 158.822 20.232C159.335 19.84 159.681 19.5087 159.858 19.238C160.035 18.958 160.124 18.6453 160.124 18.3C160.124 17.8427 159.961 17.4693 159.634 17.18C159.307 16.8813 158.883 16.732 158.36 16.732C157.959 16.732 157.581 16.8627 157.226 17.124C156.881 17.3853 156.629 17.7213 156.47 18.132L155.084 17.6Z" fill="black"/>
<path d="M0 57H189C196.732 57 203 63.268 203 71V84C203 91.732 196.732 98 189 98H14C6.26801 98 0 91.732 0 84V57Z" fill="#FED500"/>
<path d="M26.71 72.108V73.312H23.154C23.238 73.6573 23.4527 73.984 23.798 74.292C24.1433 74.6 24.6053 74.8613 25.184 75.076C25.772 75.2907 26.4393 75.4307 27.186 75.496L26.668 76.686C25.5573 76.5647 24.6007 76.2987 23.798 75.888C23.0047 75.468 22.44 74.9407 22.104 74.306C21.768 74.9407 21.1987 75.468 20.396 75.888C19.6027 76.2987 18.6507 76.5647 17.54 76.686L17.022 75.496C17.7687 75.4307 18.4313 75.2907 19.01 75.076C19.5887 74.8613 20.0507 74.6 20.396 74.292C20.7507 73.984 20.97 73.6573 21.054 73.312H17.498V72.108H26.71ZM16.476 77.596H21.334V76.014H22.832V77.596H27.718V78.8H16.476V77.596ZM17.82 79.878H26.36V83.98H17.82V79.878ZM24.89 82.776V81.068H19.29V82.776H24.89ZM42.2009 71.66V84.148H40.6889V71.66H42.2009ZM32.3309 76.966C32.3309 76.0887 32.4662 75.3187 32.7369 74.656C33.0169 73.984 33.3996 73.4707 33.8849 73.116C34.3702 72.752 34.9256 72.57 35.5509 72.57C36.1762 72.57 36.7316 72.752 37.2169 73.116C37.7022 73.4707 38.0802 73.984 38.3509 74.656C38.6309 75.3187 38.7709 76.0887 38.7709 76.966C38.7709 77.8527 38.6309 78.632 38.3509 79.304C38.0802 79.9667 37.7022 80.48 37.2169 80.844C36.7316 81.208 36.1762 81.39 35.5509 81.39C34.9256 81.39 34.3702 81.208 33.8849 80.844C33.3996 80.48 33.0169 79.9667 32.7369 79.304C32.4662 78.632 32.3309 77.8527 32.3309 76.966ZM33.7869 76.966C33.7869 77.918 33.9456 78.6647 34.2629 79.206C34.5896 79.7473 35.0189 80.018 35.5509 80.018C36.0829 80.018 36.5122 79.7473 36.8389 79.206C37.1656 78.6647 37.3289 77.918 37.3289 76.966C37.3289 76.0233 37.1656 75.286 36.8389 74.754C36.5122 74.2127 36.0829 73.942 35.5509 73.942C35.0189 73.942 34.5896 74.2127 34.2629 74.754C33.9456 75.286 33.7869 76.0233 33.7869 76.966ZM54.0872 71.646V76.42H55.6832V77.666H54.0872V84.134H52.5752V71.646H54.0872ZM44.4832 72.948H47.6472V74.138H45.9672V79.724C46.5739 79.696 47.1666 79.6307 47.7452 79.528L47.8712 80.746C47.3952 80.8487 46.9472 80.914 46.5272 80.942C46.1166 80.97 45.6359 80.984 45.0852 80.984H44.4832V72.948ZM48.3192 72.948H51.6512V74.138H49.8032V79.738C50.6339 79.71 51.3292 79.6307 51.8892 79.5L52.0432 80.718C51.6046 80.83 51.1706 80.9047 50.7412 80.942C50.3119 80.97 49.7146 80.984 48.9492 80.984H48.3192V72.948ZM64.5101 81.376V78.912H60.8981V72.5H62.3821V74.544H68.1501V72.5H69.6341V78.912H66.0081V81.376H70.9081V82.608H59.6381V81.376H64.5101ZM68.1501 77.722V75.734H62.3821V77.722H68.1501ZM81.7864 72.738V73.97H74.7304V77.512H81.9124V78.716H73.2464V72.738H81.7864ZM71.8744 81.292H83.1444V82.538H71.8744V81.292ZM94.7648 71.674V84.12H93.3228V71.674H94.7648ZM84.0128 80.424C85.2728 79.6773 86.2201 78.8093 86.8548 77.82C87.4894 76.8307 87.8628 75.692 87.9748 74.404H84.6288V73.186H89.4868C89.4868 74.418 89.3234 75.552 88.9968 76.588H90.7188V71.968H92.1328V83.518H90.7188V77.778H88.5068C87.7694 79.262 86.5608 80.5033 84.8808 81.502L84.0128 80.424ZM106.609 71.688V78.758H105.111V71.688H106.609ZM96.5711 75.23C96.5711 74.6607 96.7111 74.1567 96.9911 73.718C97.2804 73.27 97.6771 72.92 98.1811 72.668C98.6851 72.416 99.2544 72.29 99.8891 72.29C100.514 72.29 101.079 72.416 101.583 72.668C102.087 72.92 102.484 73.27 102.773 73.718C103.062 74.1567 103.207 74.6607 103.207 75.23C103.207 75.7993 103.062 76.308 102.773 76.756C102.484 77.204 102.087 77.554 101.583 77.806C101.079 78.058 100.514 78.184 99.8891 78.184C99.2544 78.184 98.6851 78.058 98.1811 77.806C97.6771 77.554 97.2804 77.204 96.9911 76.756C96.7111 76.308 96.5711 75.7993 96.5711 75.23ZM98.0411 75.23C98.0411 75.7433 98.2138 76.154 98.5591 76.462C98.9044 76.77 99.3478 76.924 99.8891 76.924C100.43 76.924 100.874 76.77 101.219 76.462C101.564 76.154 101.737 75.7433 101.737 75.23C101.737 74.7167 101.564 74.306 101.219 73.998C100.874 73.69 100.43 73.536 99.8891 73.536C99.3478 73.536 98.9044 73.69 98.5591 73.998C98.2138 74.306 98.0411 74.7167 98.0411 75.23ZM98.4471 79.36H106.609V83.966H98.4471V79.36ZM105.139 82.776V80.55H99.9171V82.776H105.139ZM121.554 71.674V74.362H123.276V75.608H121.554V78.24H120.042V71.674H121.554ZM111.824 77.274C113.299 76.994 114.428 76.5413 115.212 75.916C116.005 75.2907 116.444 74.558 116.528 73.718H112.37V72.514H118.208C118.208 74.11 117.713 75.4073 116.724 76.406C115.735 77.3953 114.297 78.086 112.412 78.478L111.824 77.274ZM113.532 78.758H121.596V79.878H115.03V80.802H121.484V81.88H115.03V82.86H121.876V83.966H113.532V78.758ZM134.308 71.66V84.148H132.796V71.66H134.308ZM124.438 76.966C124.438 76.0887 124.574 75.3187 124.844 74.656C125.124 73.984 125.507 73.4707 125.992 73.116C126.478 72.752 127.033 72.57 127.658 72.57C128.284 72.57 128.839 72.752 129.324 73.116C129.81 73.4707 130.188 73.984 130.458 74.656C130.738 75.3187 130.878 76.0887 130.878 76.966C130.878 77.8527 130.738 78.632 130.458 79.304C130.188 79.9667 129.81 80.48 129.324 80.844C128.839 81.208 128.284 81.39 127.658 81.39C127.033 81.39 126.478 81.208 125.992 80.844C125.507 80.48 125.124 79.9667 124.844 79.304C124.574 78.632 124.438 77.8527 124.438 76.966ZM125.894 76.966C125.894 77.918 126.053 78.6647 126.37 79.206C126.697 79.7473 127.126 80.018 127.658 80.018C128.19 80.018 128.62 79.7473 128.946 79.206C129.273 78.6647 129.436 77.918 129.436 76.966C129.436 76.0233 129.273 75.286 128.946 74.754C128.62 74.2127 128.19 73.942 127.658 73.942C127.126 73.942 126.697 74.2127 126.37 74.754C126.053 75.286 125.894 76.0233 125.894 76.966ZM149.197 71.674V76.644H151.087V77.89H149.197V84.12H147.685V71.674H149.197ZM139.439 73.578H142.365V71.856H143.891V73.578H146.747V74.782H139.439V73.578ZM140.027 78.548C140.027 77.988 140.163 77.4887 140.433 77.05C140.704 76.602 141.073 76.2567 141.539 76.014C142.015 75.762 142.547 75.636 143.135 75.636C143.723 75.636 144.251 75.762 144.717 76.014C145.193 76.2567 145.562 76.602 145.823 77.05C146.094 77.4887 146.229 77.988 146.229 78.548C146.229 79.1173 146.094 79.626 145.823 80.074C145.562 80.5127 145.193 80.858 144.717 81.11C144.251 81.3527 143.723 81.474 143.135 81.474C142.547 81.474 142.015 81.3527 141.539 81.11C141.073 80.858 140.704 80.508 140.433 80.06C140.163 79.612 140.027 79.108 140.027 78.548ZM141.469 78.548C141.469 79.0613 141.623 79.472 141.931 79.78C142.239 80.088 142.641 80.242 143.135 80.242C143.621 80.242 144.017 80.088 144.325 79.78C144.633 79.472 144.787 79.0613 144.787 78.548C144.787 78.044 144.633 77.638 144.325 77.33C144.017 77.022 143.621 76.868 143.135 76.868C142.641 76.868 142.239 77.022 141.931 77.33C141.623 77.638 141.469 78.044 141.469 78.548ZM162.008 71.674V78.03H160.51V71.674H162.008ZM151.746 76.812C152.707 76.504 153.454 75.9953 153.986 75.286C154.527 74.5673 154.798 73.7787 154.798 72.92V71.996H156.324V72.92C156.324 73.7413 156.585 74.488 157.108 75.16C157.64 75.832 158.382 76.3127 159.334 76.602L158.606 77.778C157.896 77.554 157.285 77.2227 156.772 76.784C156.268 76.336 155.871 75.804 155.582 75.188C155.292 75.8507 154.886 76.4293 154.364 76.924C153.841 77.4093 153.211 77.7733 152.474 78.016L151.746 76.812ZM153.832 78.618H162.008V81.824H155.33V82.832H162.386V84.022H153.846V80.732H160.524V79.78H153.832V78.618ZM178.464 78.128V79.332H173.718V81.488H172.206V79.332H167.194V78.128H178.464ZM168.566 80.48H170.05V82.664H177.232V83.896H168.566V80.48ZM168.678 72.066H170.162V73.466H175.51V72.066H177.008V77.134H168.678V72.066ZM175.51 75.944V74.614H170.162V75.944H175.51ZM182.609 83.322C182.347 83.322 182.137 83.238 181.979 83.07C181.82 82.9113 181.741 82.706 181.741 82.454C181.741 82.202 181.82 81.9967 181.979 81.838C182.137 81.6793 182.347 81.6 182.609 81.6C182.861 81.6 183.066 81.6793 183.225 81.838C183.383 81.9967 183.463 82.202 183.463 82.454C183.463 82.706 183.383 82.9113 183.225 83.07C183.066 83.238 182.861 83.322 182.609 83.322ZM179.557 74.6C179.818 73.9093 180.252 73.3447 180.859 72.906C181.475 72.4673 182.133 72.248 182.833 72.248C183.467 72.248 184.027 72.3787 184.513 72.64C185.007 72.892 185.39 73.2513 185.661 73.718C185.931 74.1753 186.067 74.698 186.067 75.286C186.067 75.8367 185.922 76.3687 185.633 76.882C185.343 77.3953 184.858 77.904 184.177 78.408C183.822 78.6693 183.589 78.9213 183.477 79.164C183.365 79.4067 183.313 79.78 183.323 80.284L181.853 80.312C181.843 79.5933 181.951 78.996 182.175 78.52C182.399 78.044 182.772 77.6147 183.295 77.232C183.808 76.84 184.153 76.5087 184.331 76.238C184.508 75.958 184.597 75.6453 184.597 75.3C184.597 74.8427 184.433 74.4693 184.107 74.18C183.78 73.8813 183.355 73.732 182.833 73.732C182.431 73.732 182.053 73.8627 181.699 74.124C181.353 74.3853 181.101 74.7213 180.943 75.132L179.557 74.6Z" fill="black"/>
<path d="M0 114H186C193.732 114 200 120.268 200 128V141C200 148.732 193.732 155 186 155H14C6.26801 155 0 148.732 0 141V114Z" fill="#FED500"/>
<path d="M26.738 128.688V135.73H25.24V128.688H26.738ZM16.476 134.288C17.4373 133.971 18.184 133.453 18.716 132.734C19.248 132.006 19.514 131.208 19.514 130.34V129.15H21.04V130.34C21.04 131.171 21.3013 131.927 21.824 132.608C22.356 133.289 23.098 133.775 24.05 134.064L23.322 135.24C22.622 135.016 22.0107 134.68 21.488 134.232C20.9747 133.784 20.578 133.252 20.298 132.636C20.018 133.299 19.612 133.877 19.08 134.372C18.5573 134.857 17.932 135.221 17.204 135.464L16.476 134.288ZM18.576 136.36H26.738V140.966H18.576V136.36ZM25.268 139.776V137.55H20.046V139.776H25.268ZM38.9743 128.688V135.73H37.4763V128.688H38.9743ZM28.7123 134.288C29.6737 133.971 30.4203 133.453 30.9523 132.734C31.4843 132.006 31.7503 131.208 31.7503 130.34V129.15H33.2763V130.34C33.2763 131.171 33.5377 131.927 34.0603 132.608C34.5923 133.289 35.3343 133.775 36.2863 134.064L35.5583 135.24C34.8583 135.016 34.247 134.68 33.7243 134.232C33.211 133.784 32.8143 133.252 32.5343 132.636C32.2543 133.299 31.8483 133.877 31.3163 134.372C30.7937 134.857 30.1683 135.221 29.4403 135.464L28.7123 134.288ZM30.8123 136.36H38.9743V140.966H30.8123V136.36ZM37.5043 139.776V137.55H32.2823V139.776H37.5043ZM50.6927 128.688V132.608H52.4147V133.854H50.6927V137.998H49.1807V128.688H50.6927ZM40.9627 130.06H43.8887V128.674H45.3867V130.06H48.2987V131.25H40.9627V130.06ZM41.6207 134.176C41.6207 133.709 41.7467 133.299 41.9987 132.944C42.2507 132.58 42.6053 132.3 43.0627 132.104C43.52 131.908 44.0427 131.81 44.6307 131.81C45.2187 131.81 45.7413 131.908 46.1987 132.104C46.6653 132.3 47.0247 132.58 47.2767 132.944C47.538 133.299 47.6687 133.709 47.6687 134.176C47.6687 134.643 47.538 135.058 47.2767 135.422C47.0247 135.777 46.6653 136.052 46.1987 136.248C45.7413 136.444 45.2187 136.542 44.6307 136.542C44.0427 136.542 43.52 136.444 43.0627 136.248C42.6053 136.052 42.2507 135.777 41.9987 135.422C41.7467 135.058 41.6207 134.643 41.6207 134.176ZM42.7827 137.27H44.2807V139.664H51.1827V140.882H42.7827V137.27ZM43.0487 134.176C43.0487 134.549 43.1933 134.843 43.4827 135.058C43.772 135.273 44.1547 135.38 44.6307 135.38C45.1067 135.38 45.4893 135.273 45.7787 135.058C46.068 134.843 46.2127 134.549 46.2127 134.176C46.2127 133.793 46.068 133.495 45.7787 133.28C45.4893 133.065 45.1067 132.958 44.6307 132.958C44.1547 132.958 43.772 133.065 43.4827 133.28C43.1933 133.495 43.0487 133.793 43.0487 134.176ZM63.825 128.674V141.12H62.397V128.674H63.825ZM53.591 130.13H58.309V131.334H55.075V137.018C55.831 137.009 56.4937 136.981 57.063 136.934C57.6323 136.878 58.211 136.789 58.799 136.668L58.939 137.914C58.267 138.054 57.5997 138.147 56.937 138.194C56.2743 138.241 55.439 138.264 54.431 138.264H53.591V130.13ZM57.455 133.294H59.849V128.926H61.249V140.532H59.849V134.526H57.455V133.294ZM78.3919 128.674V131.362H80.1139V132.608H78.3919V135.24H76.8799V128.674H78.3919ZM68.6619 134.274C70.1365 133.994 71.2659 133.541 72.0499 132.916C72.8432 132.291 73.2819 131.558 73.3659 130.718H69.2079V129.514H75.0459C75.0459 131.11 74.5512 132.407 73.5619 133.406C72.5725 134.395 71.1352 135.086 69.2499 135.478L68.6619 134.274ZM70.3699 135.758H78.4339V136.878H71.8679V137.802H78.3219V138.88H71.8679V139.86H78.7139V140.966H70.3699V135.758ZM91.1462 128.66V141.148H89.6342V128.66H91.1462ZM81.2762 133.966C81.2762 133.089 81.4115 132.319 81.6822 131.656C81.9622 130.984 82.3449 130.471 82.8302 130.116C83.3155 129.752 83.8709 129.57 84.4962 129.57C85.1215 129.57 85.6769 129.752 86.1622 130.116C86.6475 130.471 87.0255 130.984 87.2962 131.656C87.5762 132.319 87.7162 133.089 87.7162 133.966C87.7162 134.853 87.5762 135.632 87.2962 136.304C87.0255 136.967 86.6475 137.48 86.1622 137.844C85.6769 138.208 85.1215 138.39 84.4962 138.39C83.8709 138.39 83.3155 138.208 82.8302 137.844C82.3449 137.48 81.9622 136.967 81.6822 136.304C81.4115 135.632 81.2762 134.853 81.2762 133.966ZM82.7322 133.966C82.7322 134.918 82.8909 135.665 83.2082 136.206C83.5349 136.747 83.9642 137.018 84.4962 137.018C85.0282 137.018 85.4575 136.747 85.7842 136.206C86.1109 135.665 86.2742 134.918 86.2742 133.966C86.2742 133.023 86.1109 132.286 85.7842 131.754C85.4575 131.213 85.0282 130.942 84.4962 130.942C83.9642 130.942 83.5349 131.213 83.2082 131.754C82.8909 132.286 82.7322 133.023 82.7322 133.966ZM106.609 128.66V141.148H105.097V128.66H106.609ZM96.7391 133.966C96.7391 133.089 96.8744 132.319 97.1451 131.656C97.4251 130.984 97.8078 130.471 98.2931 130.116C98.7784 129.752 99.3338 129.57 99.9591 129.57C100.584 129.57 101.14 129.752 101.625 130.116C102.11 130.471 102.488 130.984 102.759 131.656C103.039 132.319 103.179 133.089 103.179 133.966C103.179 134.853 103.039 135.632 102.759 136.304C102.488 136.967 102.11 137.48 101.625 137.844C101.14 138.208 100.584 138.39 99.9591 138.39C99.3338 138.39 98.7784 138.208 98.2931 137.844C97.8078 137.48 97.4251 136.967 97.1451 136.304C96.8744 135.632 96.7391 134.853 96.7391 133.966ZM98.1951 133.966C98.1951 134.918 98.3538 135.665 98.6711 136.206C98.9978 136.747 99.4271 137.018 99.9591 137.018C100.491 137.018 100.92 136.747 101.247 136.206C101.574 135.665 101.737 134.918 101.737 133.966C101.737 133.023 101.574 132.286 101.247 131.754C100.92 131.213 100.491 130.942 99.9591 130.942C99.4271 130.942 98.9978 131.213 98.6711 131.754C98.3538 132.286 98.1951 133.023 98.1951 133.966ZM111.915 129.57C112.531 129.57 113.082 129.752 113.567 130.116C114.053 130.471 114.431 130.984 114.701 131.656C114.981 132.319 115.121 133.089 115.121 133.966C115.121 134.853 114.981 135.632 114.701 136.304C114.431 136.967 114.053 137.48 113.567 137.844C113.082 138.208 112.531 138.39 111.915 138.39C111.299 138.39 110.744 138.208 110.249 137.844C109.764 137.48 109.381 136.967 109.101 136.304C108.831 135.632 108.695 134.853 108.695 133.966C108.695 133.089 108.831 132.319 109.101 131.656C109.381 130.984 109.764 130.471 110.249 130.116C110.744 129.752 111.299 129.57 111.915 129.57ZM110.151 133.966C110.151 134.918 110.31 135.665 110.627 136.206C110.954 136.747 111.383 137.018 111.915 137.018C112.447 137.018 112.872 136.747 113.189 136.206C113.516 135.665 113.679 134.918 113.679 133.966C113.679 133.023 113.516 132.286 113.189 131.754C112.872 131.213 112.447 130.942 111.915 130.942C111.383 130.942 110.954 131.213 110.627 131.754C110.31 132.286 110.151 133.023 110.151 133.966ZM116.745 128.674H118.271V131.67H120.091V132.916H118.271V135.352H120.091V136.584H118.271V141.12H116.745V128.674ZM131.11 128.674V141.12H129.598V128.674H131.11ZM120.89 137.732C122.486 136.957 123.685 136.038 124.488 134.974C125.29 133.901 125.757 132.636 125.888 131.18H121.52V129.976H127.428C127.428 131.964 126.984 133.705 126.098 135.198C125.211 136.682 123.741 137.923 121.688 138.922L120.89 137.732ZM145.971 128.674V133.644H147.861V134.89H145.971V141.12H144.459V128.674H145.971ZM136.213 130.578H139.139V128.856H140.665V130.578H143.521V131.782H136.213V130.578ZM136.801 135.548C136.801 134.988 136.936 134.489 137.207 134.05C137.477 133.602 137.846 133.257 138.313 133.014C138.789 132.762 139.321 132.636 139.909 132.636C140.497 132.636 141.024 132.762 141.491 133.014C141.967 133.257 142.335 133.602 142.597 134.05C142.867 134.489 143.003 134.988 143.003 135.548C143.003 136.117 142.867 136.626 142.597 137.074C142.335 137.513 141.967 137.858 141.491 138.11C141.024 138.353 140.497 138.474 139.909 138.474C139.321 138.474 138.789 138.353 138.313 138.11C137.846 137.858 137.477 137.508 137.207 137.06C136.936 136.612 136.801 136.108 136.801 135.548ZM138.243 135.548C138.243 136.061 138.397 136.472 138.705 136.78C139.013 137.088 139.414 137.242 139.909 137.242C140.394 137.242 140.791 137.088 141.099 136.78C141.407 136.472 141.561 136.061 141.561 135.548C141.561 135.044 141.407 134.638 141.099 134.33C140.791 134.022 140.394 133.868 139.909 133.868C139.414 133.868 139.013 134.022 138.705 134.33C138.397 134.638 138.243 135.044 138.243 135.548ZM158.781 128.674V135.03H157.283V128.674H158.781ZM148.519 133.812C149.48 133.504 150.227 132.995 150.759 132.286C151.3 131.567 151.571 130.779 151.571 129.92V128.996H153.097V129.92C153.097 130.741 153.358 131.488 153.881 132.16C154.413 132.832 155.155 133.313 156.107 133.602L155.379 134.778C154.67 134.554 154.058 134.223 153.545 133.784C153.041 133.336 152.644 132.804 152.355 132.188C152.066 132.851 151.66 133.429 151.137 133.924C150.614 134.409 149.984 134.773 149.247 135.016L148.519 133.812ZM150.605 135.618H158.781V138.824H152.103V139.832H159.159V141.022H150.619V137.732H157.297V136.78H150.605V135.618ZM175.238 135.128V136.332H170.492V138.488H168.98V136.332H163.968V135.128H175.238ZM165.34 137.48H166.824V139.664H174.006V140.896H165.34V137.48ZM165.452 129.066H166.936V130.466H172.284V129.066H173.782V134.134H165.452V129.066ZM172.284 132.944V131.614H166.936V132.944H172.284ZM179.382 140.322C179.121 140.322 178.911 140.238 178.752 140.07C178.594 139.911 178.514 139.706 178.514 139.454C178.514 139.202 178.594 138.997 178.752 138.838C178.911 138.679 179.121 138.6 179.382 138.6C179.634 138.6 179.84 138.679 179.998 138.838C180.157 138.997 180.236 139.202 180.236 139.454C180.236 139.706 180.157 139.911 179.998 140.07C179.84 140.238 179.634 140.322 179.382 140.322ZM176.33 131.6C176.592 130.909 177.026 130.345 177.632 129.906C178.248 129.467 178.906 129.248 179.606 129.248C180.241 129.248 180.801 129.379 181.286 129.64C181.781 129.892 182.164 130.251 182.434 130.718C182.705 131.175 182.84 131.698 182.84 132.286C182.84 132.837 182.696 133.369 182.406 133.882C182.117 134.395 181.632 134.904 180.95 135.408C180.596 135.669 180.362 135.921 180.25 136.164C180.138 136.407 180.087 136.78 180.096 137.284L178.626 137.312C178.617 136.593 178.724 135.996 178.948 135.52C179.172 135.044 179.546 134.615 180.068 134.232C180.582 133.84 180.927 133.509 181.104 133.238C181.282 132.958 181.37 132.645 181.37 132.3C181.37 131.843 181.207 131.469 180.88 131.18C180.554 130.881 180.129 130.732 179.606 130.732C179.205 130.732 178.827 130.863 178.472 131.124C178.127 131.385 177.875 131.721 177.716 132.132L176.33 131.6Z" fill="black"/>
<path d="M116 217C116 209.268 122.268 203 130 203H312V238C312 245.732 305.732 252 298 252H130C122.268 252 116 245.732 116 238V217Z" fill="#FF6A29"/>
<path d="M138.408 222.868V225.01C138.408 226.198 138.222 227.356 137.85 228.484C137.49 229.6 136.968 230.59 136.284 231.454C135.6 232.318 134.796 232.966 133.872 233.398L132.774 231.886C133.59 231.502 134.31 230.944 134.934 230.212C135.558 229.48 136.032 228.664 136.356 227.764C136.692 226.852 136.86 225.934 136.86 225.01V222.868H138.408ZM138.822 222.868V225.01C138.822 225.898 138.99 226.774 139.326 227.638C139.662 228.49 140.136 229.258 140.748 229.942C141.372 230.614 142.098 231.124 142.926 231.472L141.846 233.002C140.922 232.594 140.112 231.982 139.416 231.166C138.72 230.35 138.186 229.414 137.814 228.358C137.454 227.29 137.274 226.174 137.274 225.01V222.868H138.822ZM142.332 222.004V223.624H133.35V222.004H142.332ZM146.04 220.438V236.44H144.096V220.438H146.04ZM160.62 221.212V222.778H150.414V221.212H160.62ZM163.086 227.026V228.592H148.596V227.026H163.086ZM161.322 221.212V222.454C161.322 223.39 161.292 224.224 161.232 224.956C161.172 225.688 161.034 226.528 160.818 227.476L158.91 227.422C159.138 226.486 159.276 225.658 159.324 224.938C159.384 224.206 159.414 223.378 159.414 222.454V221.212H161.322ZM161.304 230.464V236.26H150.342V230.464H161.304ZM152.232 231.994V234.73H159.414V231.994H152.232ZM182.857 231.196C182.857 231.233 182.839 231.277 182.802 231.326C182.765 231.363 182.721 231.382 182.672 231.382H180.538C180.489 231.382 180.445 231.363 180.408 231.326C180.371 231.277 180.353 231.233 180.353 231.196V226.91H170.89C170.84 226.91 170.797 226.892 170.76 226.854C170.723 226.817 170.704 226.78 170.704 226.743V224.943C170.704 224.82 170.766 224.758 170.89 224.758H182.672C182.796 224.758 182.857 224.82 182.857 224.943V231.196ZM200.707 231.196C200.707 231.233 200.688 231.277 200.651 231.326C200.614 231.363 200.571 231.382 200.521 231.382H198.388C198.338 231.382 198.295 231.363 198.258 231.326C198.221 231.277 198.202 231.233 198.202 231.196V226.91H188.739C188.69 226.91 188.646 226.892 188.609 226.854C188.572 226.817 188.554 226.78 188.554 226.743V224.943C188.554 224.82 188.616 224.758 188.739 224.758H200.521C200.645 224.758 200.707 224.82 200.707 224.943V231.196ZM212.842 224.275C212.842 224.82 212.761 225.296 212.601 225.704C212.44 226.112 212.242 226.483 212.007 226.817C211.772 227.151 211.512 227.467 211.228 227.764C210.955 228.061 210.708 228.376 210.485 228.71C210.263 229.032 210.083 229.396 209.947 229.805C209.811 230.201 209.762 230.664 209.799 231.196C209.799 231.246 209.78 231.289 209.743 231.326C209.706 231.363 209.669 231.382 209.632 231.382H207.479C207.43 231.382 207.387 231.363 207.35 231.326C207.325 231.277 207.306 231.233 207.294 231.196C207.269 230.528 207.325 229.941 207.461 229.434C207.597 228.926 207.776 228.481 207.999 228.098C208.234 227.702 208.488 227.355 208.76 227.059C209.032 226.749 209.279 226.459 209.502 226.187C209.737 225.902 209.935 225.624 210.096 225.352C210.257 225.067 210.337 224.758 210.337 224.424C210.337 223.917 210.219 223.521 209.984 223.236C209.762 222.952 209.384 222.81 208.853 222.81C208.605 222.81 208.395 222.853 208.222 222.939C208.049 223.014 207.9 223.119 207.776 223.255C207.665 223.379 207.572 223.521 207.498 223.682C207.424 223.842 207.362 224.003 207.312 224.164C207.288 224.312 207.207 224.362 207.071 224.312L205.179 223.57C205.117 223.558 205.074 223.527 205.049 223.478C205.024 223.428 205.024 223.379 205.049 223.329C205.185 222.958 205.358 222.612 205.568 222.29C205.779 221.956 206.038 221.672 206.348 221.437C206.669 221.189 207.047 220.997 207.479 220.861C207.912 220.725 208.42 220.657 209.001 220.657C209.706 220.657 210.3 220.762 210.782 220.973C211.265 221.183 211.66 221.461 211.97 221.808C212.279 222.154 212.502 222.544 212.638 222.977C212.774 223.397 212.842 223.83 212.842 224.275ZM208.556 232.885C208.989 232.885 209.36 233.039 209.669 233.349C209.978 233.658 210.133 234.029 210.133 234.462C210.133 234.907 209.978 235.278 209.669 235.575C209.36 235.884 208.989 236.039 208.556 236.039C208.123 236.039 207.752 235.884 207.442 235.575C207.133 235.278 206.979 234.907 206.979 234.462C206.979 234.029 207.133 233.658 207.442 233.349C207.752 233.039 208.123 232.885 208.556 232.885ZM224.117 226.468V228.034H221.309V226.468H224.117ZM228.563 220.438V236.44H226.709V220.438H228.563ZM225.305 220.744V235.684H223.487V220.744H225.305ZM218.465 221.644C219.173 221.644 219.785 221.878 220.301 222.346C220.817 222.802 221.213 223.462 221.489 224.326C221.777 225.178 221.921 226.186 221.921 227.35C221.921 228.526 221.777 229.546 221.489 230.41C221.213 231.262 220.817 231.922 220.301 232.39C219.785 232.846 219.173 233.074 218.465 233.074C217.781 233.074 217.181 232.846 216.665 232.39C216.149 231.922 215.747 231.262 215.459 230.41C215.183 229.546 215.045 228.526 215.045 227.35C215.045 226.186 215.183 225.178 215.459 224.326C215.747 223.462 216.149 222.802 216.665 222.346C217.181 221.878 217.781 221.644 218.465 221.644ZM218.465 223.48C218.129 223.48 217.835 223.63 217.583 223.93C217.331 224.218 217.139 224.656 217.007 225.244C216.875 225.82 216.809 226.522 216.809 227.35C216.809 228.19 216.875 228.904 217.007 229.492C217.139 230.068 217.331 230.506 217.583 230.806C217.835 231.106 218.129 231.256 218.465 231.256C218.825 231.256 219.131 231.106 219.383 230.806C219.635 230.506 219.827 230.068 219.959 229.492C220.091 228.904 220.157 228.19 220.157 227.35C220.157 226.522 220.091 225.82 219.959 225.244C219.827 224.656 219.635 224.218 219.383 223.93C219.131 223.63 218.825 223.48 218.465 223.48ZM242.963 225.64V227.188H238.643V225.64H242.963ZM236.069 221.716V224.29C236.069 225.574 235.895 226.804 235.547 227.98C235.199 229.156 234.695 230.194 234.035 231.094C233.375 231.994 232.589 232.678 231.677 233.146L230.471 231.598C231.299 231.202 232.019 230.626 232.631 229.87C233.243 229.102 233.705 228.238 234.017 227.278C234.341 226.306 234.503 225.31 234.503 224.29V221.716H236.069ZM236.447 221.716V224.29C236.447 225.298 236.603 226.27 236.915 227.206C237.227 228.13 237.677 228.958 238.265 229.69C238.853 230.422 239.555 230.968 240.371 231.328L239.237 232.876C238.313 232.432 237.521 231.778 236.861 230.914C236.213 230.038 235.721 229.036 235.385 227.908C235.049 226.78 234.881 225.574 234.881 224.29V221.716H236.447ZM243.917 220.42V236.476H241.991V220.42H243.917ZM265.337 231.196C265.337 231.233 265.318 231.277 265.281 231.326C265.244 231.363 265.201 231.382 265.151 231.382H263.018C262.968 231.382 262.925 231.363 262.888 231.326C262.851 231.277 262.832 231.233 262.832 231.196V226.91H253.369C253.32 226.91 253.276 226.892 253.239 226.854C253.202 226.817 253.184 226.78 253.184 226.743V224.943C253.184 224.82 253.245 224.758 253.369 224.758H265.151C265.275 224.758 265.337 224.82 265.337 224.943V231.196ZM283.187 231.196C283.187 231.233 283.168 231.277 283.131 231.326C283.094 231.363 283.05 231.382 283.001 231.382H280.867C280.818 231.382 280.774 231.363 280.737 231.326C280.7 231.277 280.682 231.233 280.682 231.196V226.91H271.219C271.169 226.91 271.126 226.892 271.089 226.854C271.052 226.817 271.033 226.78 271.033 226.743V224.943C271.033 224.82 271.095 224.758 271.219 224.758H283.001C283.125 224.758 283.187 224.82 283.187 224.943V231.196ZM291.907 231.011C291.907 231.134 291.852 231.196 291.74 231.196H290.07C289.934 231.196 289.866 231.134 289.866 231.011L289.439 221.047C289.427 220.997 289.439 220.954 289.477 220.917C289.514 220.88 289.557 220.861 289.606 220.861H292.167C292.291 220.861 292.353 220.923 292.353 221.047L291.907 231.011ZM290.905 232.885C291.338 232.885 291.703 233.039 292 233.349C292.309 233.658 292.464 234.029 292.464 234.462C292.464 234.907 292.309 235.278 292 235.575C291.703 235.884 291.338 236.039 290.905 236.039C290.472 236.039 290.101 235.884 289.792 235.575C289.483 235.278 289.328 234.907 289.328 234.462C289.328 234.029 289.483 233.658 289.792 233.349C290.101 233.039 290.472 232.885 290.905 232.885Z" fill="white"/>
</svg>
