<svg width="16" height="16" viewBox="0 0 16 16" fill="none" xmlns="http://www.w3.org/2000/svg">
<path d="M14.4759 5.38818C13.3448 5.73779 12.6044 7.32134 12.6044 8.47301C12.6044 9.95373 13.4476 11.5373 14.8255 11.9075C14.4348 13.2237 13.3859 14.8689 12.4194 15.5681C12.008 15.856 11.5145 15.9794 10.9386 15.9794C10.5479 15.9794 10.116 15.8972 9.54018 15.671C9.06717 15.4447 8.63529 15.3419 8.34738 15.3419C8.10059 15.3419 7.56589 15.5064 6.84609 15.7943C6.43478 15.9177 6.10573 16 5.87951 16C5.22141 16 4.64558 15.7326 4.04918 15.2391C2.21884 13.5527 1.17 11.0848 1.17 8.51414C1.17 5.96401 2.79468 3.51671 5.24198 3.51671C5.98234 3.51671 6.53761 3.68123 7.03118 3.92802C7.50419 4.21594 7.89493 4.31877 8.32681 4.31877C8.67643 4.31877 9.08774 4.25707 9.47848 4.09254C10.4245 3.72236 11.062 3.51671 11.4322 3.51671C12.3782 3.51671 13.1186 3.82519 13.7356 4.38046C13.9823 4.62725 14.2497 4.9563 14.4759 5.38818ZM7.9155 3.61954C7.9155 2.73522 8.26511 1.97429 8.86151 1.23393C9.47848 0.55527 10.2805 0.143958 11.1649 0C11.1649 0.904884 10.8564 1.80977 10.2394 2.52956C9.56074 3.26992 8.82038 3.61954 7.9155 3.61954Z" fill="white"/>
</svg>
