<svg width="20" height="20" viewBox="0 0 20 20" fill="none" xmlns="http://www.w3.org/2000/svg">
<path d="M16.6667 15C17.1269 15 17.5 15.3731 17.5 15.8333C17.5 16.2607 17.1783 16.6129 16.7639 16.661L16.6667 16.6666H3.33333C2.8731 16.6666 2.5 16.2936 2.5 15.8333C2.5 15.4059 2.8217 15.0537 3.23615 15.0056L3.33333 15H16.6667ZM16.6667 9.16665C17.1269 9.16665 17.5 9.53973 17.5 9.99998C17.5 10.4602 17.1269 10.8333 16.6667 10.8333H3.33333C2.8731 10.8333 2.5 10.4602 2.5 9.99998C2.5 9.53973 2.8731 9.16665 3.33333 9.16665H16.6667ZM16.6667 3.33331C17.1269 3.33331 17.5 3.70641 17.5 4.16665C17.5 4.62688 17.1269 4.99998 16.6667 4.99998H3.33333C2.8731 4.99998 2.5 4.62688 2.5 4.16665C2.5 3.70641 2.8731 3.33331 3.33333 3.33331H16.6667Z" fill="#808080"/>
</svg>
