<svg width="12" height="12" viewBox="0 0 12 12" fill="none" xmlns="http://www.w3.org/2000/svg">
<path d="M6.56463 2.73602C6.84539 2.57635 7.03474 2.2745 7.03474 1.92842C7.03474 1.41567 6.61908 1 6.10632 1C5.59355 1 5.1779 1.41567 5.1779 1.92842C5.1779 2.27528 5.36808 2.57771 5.6499 2.7371L5.64573 2.74559C5.34134 3.37997 4.91901 4.28882 4.26648 4.63001C3.73112 4.90995 2.96188 4.76911 2.39093 4.66466C2.36578 4.30297 2.0644 4.01737 1.69632 4.01737C1.31175 4.01737 1 4.32912 1 4.71368C1 5.05474 1.24517 5.33851 1.56888 5.39835L2.93698 8.93039C3.14468 9.4666 3.66058 9.82 4.2356 9.82H7.97704C8.55206 9.82 9.06793 9.4666 9.27567 8.93039L10.6437 5.39835C10.9674 5.33851 11.2126 5.05474 11.2126 4.71368C11.2126 4.32912 10.9009 4.01737 10.5163 4.01737C10.1553 4.01737 9.85844 4.29212 9.82344 4.64393C9.23895 4.71972 8.48544 4.81641 7.94617 4.53444C7.30672 4.2001 6.87848 3.3539 6.56463 2.73602Z" fill="#FF6A29"/>
</svg>
