<svg width="24" height="24" viewBox="0 0 24 24" fill="none" xmlns="http://www.w3.org/2000/svg">
<g clip-path="url(#clip0_440_38)">
<path d="M20 3C21.1046 3 22 3.89543 22 5V19C22 20.1046 21.1046 21 20 21H4C2.89543 21 2 20.1046 2 19V5C2 3.89543 2.89543 3 4 3H20ZM20 5H4V19H4.92895L14.2374 9.69151C14.7256 9.20336 15.5171 9.20336 16.0052 9.69151L20 13.6863V5ZM15.1213 11.6361L7.75738 19H20V16.5147L15.1213 11.6361ZM7.5 7C8.32843 7 9 7.67157 9 8.5C9 9.32843 8.32843 10 7.5 10C6.67157 10 6 9.32843 6 8.5C6 7.67157 6.67157 7 7.5 7Z" fill="#808080"/>
</g>
<defs>
<clipPath id="clip0_440_38">
<rect width="24" height="24" fill="white"/>
</clipPath>
</defs>
</svg>
