<svg width="12" height="12" viewBox="0 0 12 12" fill="none" xmlns="http://www.w3.org/2000/svg">
<path fill-rule="evenodd" clip-rule="evenodd" d="M2.19526 2.19526C2.45561 1.93491 2.87772 1.93491 3.13808 2.19526L6.47141 5.52861C6.59641 5.65361 6.66668 5.82321 6.66668 6.00001C6.66668 6.17681 6.59641 6.34641 6.47141 6.47141L3.13808 9.80475C2.87772 10.0651 2.45561 10.0651 2.19526 9.80475C1.93491 9.54442 1.93491 9.12228 2.19526 8.86195L5.05721 6.00001L2.19526 3.13808C1.93491 2.87772 1.93491 2.45561 2.19526 2.19526ZM6.19527 2.19526C6.45561 1.93491 6.87774 1.93491 7.13808 2.19526L10.4714 5.52861C10.5964 5.65361 10.6667 5.82321 10.6667 6.00001C10.6667 6.17681 10.5964 6.34641 10.4714 6.47141L7.13808 9.80475C6.87774 10.0651 6.45561 10.0651 6.19527 9.80475C5.93494 9.54442 5.93494 9.12228 6.19527 8.86195L9.05721 6.00001L6.19527 3.13808C5.93494 2.87772 5.93494 2.45561 6.19527 2.19526Z" fill="#FF6A29"/>
</svg>
